# xmcd
#
# Track frame offsets:
#	150
#	14054
#	27506
#	40079
#	53661
#	66802
#	81595
#	94721
#	106021
#	120550
#	131491
#	142389
#	152251
#	166095
#	192080
#	208024
#	221175
#
# Disc length: 3103 seconds
#
# Revision: 2
# Processed by: cddbd v1.5.2PL0 Copyright (c) Steve Scherf et al.
# Submitted via: EZCDAudioConverter 3.1.5.1
#
DISCID=ee0c1d11
DTITLE=John Lee Hooker - John Lee Hooker [CD 3)
DYEAR=2000
DGENRE=Blues
TTITLE0=Hobo Blues
TTITLE1=Baby Lee
TTITLE2=Rosie May
TTITLE3=Trouble Blues
TTITLE4=I'm So Exited
TTITLE5=Moanin' Blues
TTITLE6=Unfriendly Woman
TTITLE7=You've Taken My Woman
TTITLE8=I'm So Worried Baby
TTITLE9=No Shoes
TTITLE10=Send Me Your Pillow
TTITLE11=Onions
TTITLE12=The Road Is Rough
TTITLE13=Drug Store Woman
TTITLE14=It Serves Me Right To Suffer
TTITLE15=I' m Going Upstairs
TTITLE16=Boogie Chillen 2
EXTD=
EXTT0=
EXTT1=
EXTT2=
EXTT3=
EXTT4=
EXTT5=
EXTT6=
EXTT7=
EXTT8=
EXTT9=
EXTT10=
EXTT11=
EXTT12=
EXTT13=
EXTT14=
EXTT15=
EXTT16=
PLAYORDER=
